<?xml version="1.0" encoding="utf-8"?>
<!-- Generator: Adobe Illustrator 27.8.1, SVG Export Plug-In . SVG Version: 6.00 Build 0)  -->
<svg version="1.1" id="Layer_1" xmlns="http://www.w3.org/2000/svg" xmlns:xlink="http://www.w3.org/1999/xlink" x="0px" y="0px"
	 viewBox="0 0 421 354" style="enable-background:new 0 0 421 354;" xml:space="preserve">
<style type="text/css">
	.st0{fill:#0E000E;}
</style>
<g>
	<path class="st0" d="M24.68,117.99c-1.27,0-2.06-1.32-2.06-3.44v-3.84c0-2.25,0.48-3.04,1.67-3.84l1.51-0.93
		c1.67-1.06,2.22-2.52,2.22-5.43V42.79c0-2.91-0.56-4.37-2.22-5.43l-1.51-0.93c-1.19-0.79-1.67-1.59-1.67-3.84v-3.84
		c0-2.12,0.79-3.44,2.06-3.44h16.18c1.11,0,1.9,0.66,2.46,2.25l13,35.48c0.4,1.06,0.87,1.06,1.27,0L72.1,27.56
		c0.63-1.59,1.35-2.25,2.46-2.25h13.08c1.35,0,2.06,1.32,2.06,3.44v5.03c0,2.25-0.48,3.04-1.67,3.84l-1.51,0.93
		c-1.67,1.06-2.22,2.52-2.22,5.43v55.34c0,2.91,0.55,4.37,2.22,5.43l1.51,0.93c1.19,0.79,1.67,1.59,1.67,3.84v5.03
		c0,2.12-0.71,3.44-2.06,3.44H66.79c-1.27,0-2.06-1.32-2.06-3.44v-5.03c0-2.25,0.48-3.05,1.67-3.84l1.51-0.93
		c1.67-1.06,2.22-2.52,2.22-5.43V63.58c0-1.46-0.63-1.85-1.19-0.53l-13.4,32.31c-0.95,2.25-1.51,3.05-2.78,3.05
		c-1.19,0-1.9-0.79-2.78-3.05L37.92,63.05c-0.48-1.32-1.19-0.93-1.19,0.53v36.94c0,2.91,0.55,4.37,2.22,5.43l1.51,0.93
		c1.19,0.79,1.67,1.59,1.67,3.84v3.84c0,2.12-0.71,3.44-2.06,3.44H24.68z"/>
	<path class="st0" d="M111.44,23.33h21.01l18,94.67h-17.21l-3.01-17.61h-18.79l-3.01,17.61H93.28L111.44,23.33z M114.61,81.72h12.45
		l-6.19-36.41L114.61,81.72z"/>
	<path class="st0" d="M156.96,23.33h16.34V60.8l17.05-37.47h16.97l-20.78,43.96l21.89,50.71h-18.79l-16.34-39.59v39.59h-16.34V23.33
		z"/>
	<path class="st0" d="M214.54,23.33h39.17v20.92h-23v16.29h18.32v19.33h-18.32v17.21h24.27v20.92h-40.44V23.33z"/>
	<path class="st0" d="M39.27,130.51h21.01l18,94.67H61.08l-3.01-17.61H39.27l-3.01,17.61H21.11L39.27,130.51z M42.44,188.9h12.45
		l-6.18-36.41L42.44,188.9z"/>
	<path class="st0" d="M100.41,130.51h25.3c13.4,0,19.11,10.06,19.11,24.76v0.53c0,10.59-3.25,17.61-9.6,20.39
		c6.98,1.99,11.34,9,11.34,22.11v0.53c0,16.95-6.58,26.35-20.62,26.35h-25.54V130.51z M122.46,168.12c5.08,0,6.98-2.91,6.98-9.67
		v-0.53c0-6.49-2.06-9.4-6.98-9.4h-6.19v19.6H122.46z M123.01,207.04c5.15,0,7.53-3.97,7.53-10.99v-0.53
		c0-7.15-2.3-10.86-8.01-10.86h-6.26v22.38H123.01z"/>
	<path class="st0" d="M151.64,178.44v-1.06c0-28.86,13-48.19,29.98-48.19c17.29,0,30.05,18.14,30.05,47.53v1.06
		c0,29.13-11.97,48.99-30.29,48.99S151.64,206.91,151.64,178.44z M194.7,178.18v-1.06c0-16.81-5.08-26.74-13.08-26.74
		c-8.01,0-13,9.67-13,26.88v1.06c0,17.21,5.23,27.14,13.08,27.14C189.71,205.45,194.7,195.12,194.7,178.18z"/>
	<path class="st0" d="M219.61,130.51h16.34v73.61h21.41v21.05h-37.75V130.51z"/>
	<path class="st0" d="M265.21,130.51h20.62c20.14,0,30.37,16.81,30.37,46.21v1.06c0,29.53-10.47,47.4-30.45,47.4h-20.54V130.51z
		 M285.27,204.26c9.67,0,13.96-8.47,13.96-26.08v-1.06c0-18.01-4.28-25.69-14.12-25.69h-3.57v52.83H285.27z"/>
	<path class="st0" d="M159.63,237.7h21.17l10.86,50.45l10.86-50.45h20.78v94.67h-16.18v-58.92l-13.88,58.92h-5.39l-13.72-58.92
		v58.92h-14.51V237.7z"/>
	<path class="st0" d="M231.32,285.63v-1.06c0-28.86,13-48.19,29.98-48.19c17.29,0,30.05,18.14,30.05,47.53v1.06
		c0,29.13-11.97,48.99-30.29,48.99S231.32,314.1,231.32,285.63z M274.38,285.37v-1.06c0-16.81-5.08-26.75-13.08-26.75
		c-8.01,0-13,9.67-13,26.88v1.06c0,17.21,5.23,27.14,13.08,27.14C269.38,312.64,274.38,302.31,274.38,285.37z"/>
	<path class="st0" d="M321.32,332.37c-1.14,0-2.04-0.95-2.53-2.86l-18.2-69.1c-1.55-6-2.53-8.45-4.33-9.95l-1.14-0.95
		c-1.06-0.95-1.47-1.77-1.47-3.82v-5.18c0-2.32,0.82-3.54,2.12-3.54h24.74c1.31,0,2.12,1.36,2.12,3.54v5.18
		c0,1.91-0.41,3.13-1.47,3.82l-1.06,0.68c-2.2,1.36-2.45,4.09-1.39,8.45l9.14,37.89c0.33,1.5,0.98,1.5,1.31,0l8.73-37.89
		c1.06-4.63,0.57-7.36-1.96-9.13l-0.98-0.68c-0.98-0.68-1.47-1.91-1.47-3.95v-4.36c0-2.18,0.82-3.54,2.12-3.54h16.9
		c1.31,0,2.12,1.36,2.12,3.54v4.91c0,1.91-0.33,3.13-1.31,3.95l-0.98,0.82c-2.45,2.04-3.43,4.36-4.49,8.72l-16.57,70.6
		c-0.41,1.91-1.39,2.86-2.53,2.86H321.32z"/>
	<path class="st0" d="M359.94,237.7h39.17v20.92h-23v16.29h18.32v19.33h-18.32v17.21h24.27v20.92h-40.44V237.7z"/>
</g>
</svg>
